<?xml version="1.0" standalone="no"?>
<!DOCTYPE svg PUBLIC "-//W3C//DTD SVG 20010904//EN"
 "http://www.w3.org/TR/2001/REC-SVG-20010904/DTD/svg10.dtd">
<svg version="1.0" xmlns="http://www.w3.org/2000/svg"
 width="520.000000pt" height="520.000000pt" viewBox="0 0 520.000000 520.000000"
 preserveAspectRatio="xMidYMid meet">
<metadata>
Created by potrace 1.14, written by Peter Selinger 2001-2017
</metadata>
<g transform="translate(0.000000,520.000000) scale(0.100000,-0.100000)"
fill="#000000" stroke="none">
<path d="M3791 4766 c-20 -24 -18 -218 4 -431 16 -164 16 -164 -5 -175 -11 -6
-20 -8 -20 -5 0 3 -17 -2 -37 -11 -45 -18 -77 -23 -198 -29 -49 -2 -126 -7
-170 -10 -44 -2 -120 -7 -170 -10 -228 -14 -265 -16 -345 -21 -47 -3 -112 -7
-145 -9 -33 -2 -109 -6 -170 -10 -60 -3 -144 -8 -185 -10 -242 -16 -399 -25
-495 -30 -38 -2 -113 -6 -165 -10 -96 -6 -153 -9 -335 -20 -55 -3 -131 -8
-170 -10 -152 -10 -253 -16 -330 -20 -44 -2 -118 -7 -165 -10 -47 -3 -123 -8
-170 -11 -202 -12 -295 -43 -374 -121 -69 -68 -92 -154 -72 -273 10 -56 10
-47 2 -160 -3 -52 -9 -142 -12 -200 -3 -58 -8 -127 -10 -155 -8 -115 -11 -726
-4 -800 9 -94 23 -136 100 -310 82 -184 116 -256 260 -550 115 -236 132 -265
179 -308 93 -83 229 -144 361 -162 30 -4 63 -9 73 -11 52 -9 184 -7 492 11
125 7 289 17 345 20 30 2 118 6 195 10 77 4 160 8 185 10 25 2 106 6 180 10
74 3 160 8 190 10 56 4 191 11 355 20 132 7 259 14 355 20 85 5 195 11 365 20
50 2 135 7 190 10 105 6 178 10 360 19 61 3 144 8 185 11 41 3 127 7 190 10
281 14 398 52 455 149 30 52 32 65 40 276 4 96 8 200 10 230 4 53 10 179 20
405 3 61 8 128 12 150 19 112 -2 238 -62 370 -8 17 -89 217 -180 445 -92 228
-173 429 -180 445 -7 17 -28 68 -47 115 -53 135 -103 215 -186 297 l-76 75 91
178 91 178 -67 65 c-86 84 -104 94 -131 67 -11 -11 -20 -24 -20 -30 0 -21 -29
3 -32 27 -2 20 -13 30 -53 45 -33 13 -73 42 -117 86 -83 82 -95 87 -130 55
-28 -27 -49 -24 -41 5 3 15 -9 24 -65 46 -94 36 -134 42 -151 22z m329 -493
c1 -16 3 -54 7 -86 l6 -59 -49 7 c-27 4 -50 9 -52 10 -5 4 73 155 81 155 4 0
7 -12 7 -27z"/>
</g>
</svg>
