<?xml version="1.0" standalone="no"?>
<!DOCTYPE svg PUBLIC "-//W3C//DTD SVG 20010904//EN"
 "http://www.w3.org/TR/2001/REC-SVG-20010904/DTD/svg10.dtd">
<svg version="1.0" xmlns="http://www.w3.org/2000/svg"
 width="800.000000pt" height="800.000000pt" viewBox="0 0 800.000000 800.000000"
 preserveAspectRatio="xMidYMid meet">
<metadata>
Created by potrace 1.14, written by Peter Selinger 2001-2017
</metadata>
<g transform="translate(0.000000,800.000000) scale(0.100000,-0.100000)"
fill="#000000" stroke="none">
<path d="M5465 7662 c-91 -16 -208 -54 -421 -137 -137 -53 -262 -103 -279
-110 -31 -14 -380 -149 -495 -192 -36 -14 -78 -31 -95 -39 -37 -16 -264 -104
-270 -104 -3 0 -24 -8 -48 -19 -23 -10 -91 -38 -152 -61 -60 -24 -123 -48
-140 -55 -16 -7 -82 -33 -145 -58 -215 -84 -885 -349 -915 -362 -16 -7 -223
-90 -460 -185 -236 -95 -448 -181 -470 -191 -22 -10 -80 -34 -130 -54 -49 -20
-103 -43 -120 -50 -16 -7 -143 -61 -282 -119 -433 -181 -539 -235 -765 -383
-111 -73 -156 -121 -199 -211 -54 -112 -57 -146 -59 -647 -2 -467 -1 -592 5
-623 1 -9 6 -46 10 -82 8 -80 54 -261 90 -355 22 -60 733 -1481 987 -1975 47
-91 147 -286 223 -435 287 -563 411 -791 457 -843 148 -166 254 -216 433 -207
109 6 256 51 442 136 23 10 44 19 48 19 3 0 24 9 48 19 23 11 182 79 352 152
171 72 333 142 360 155 28 12 118 52 200 87 83 36 170 74 195 85 140 63 182
82 185 82 2 0 32 13 67 29 35 15 110 49 168 74 196 85 971 428 1036 458 36 16
66 29 68 29 2 0 43 18 90 40 47 22 88 40 90 40 3 0 33 13 68 30 35 16 227 101
428 190 201 88 388 172 415 185 67 31 165 75 169 75 3 0 37 15 78 34 40 19
192 86 338 151 416 183 442 197 525 279 109 107 120 134 294 726 77 263 92
327 95 419 6 198 -21 269 -284 736 -37 66 -141 251 -230 410 -90 160 -203 360
-250 445 -138 246 -327 579 -605 1070 -142 250 -270 478 -286 505 -203 367
-375 659 -410 698 -84 96 -185 138 -339 141 -52 1 -104 0 -115 -2z"/>
</g>
</svg>
